<?xml version="1.0" standalone="no"?><!DOCTYPE svg PUBLIC "-//W3C//DTD SVG 1.1//EN" "http://www.w3.org/Graphics/SVG/1.1/DTD/svg11.dtd"><svg t="1690769513032" class="icon" viewBox="0 0 1024 1024" version="1.1" xmlns="http://www.w3.org/2000/svg" p-id="3211" xmlns:xlink="http://www.w3.org/1999/xlink" width="28" height="28"><path d="M291.84 547.84C332.8 573.44 384 588.8 435.2 588.8s102.4-15.36 143.36-40.96H614.4c99.84 0 179.2 79.36 179.2 179.2v99.84c0 43.52-35.84 79.36-79.36 79.36H156.16C112.64 906.24 76.8 870.4 76.8 826.88v-99.84c0-99.84 79.36-179.2 179.2-179.2h35.84z m-20.48 81.92H256c-53.76 0-99.84 43.52-99.84 99.84v99.84h558.08v-99.84c0-53.76-43.52-99.84-99.84-99.84h-15.36c-51.2 25.6-107.52 40.96-163.84 40.96s-115.2-15.36-163.84-40.96zM435.2 110.08c110.08 0 199.68 89.6 199.68 199.68s-89.6 199.68-199.68 199.68-199.68-89.6-199.68-199.68 89.6-199.68 199.68-199.68z m0 79.36c-66.56 0-120.32 53.76-120.32 120.32s53.76 120.32 120.32 120.32 120.32-53.76 120.32-120.32-53.76-120.32-120.32-120.32z" p-id="3212"></path><path d="M665.1648 621.4144l229.888-229.888 59.7504 59.7248-229.888 229.888z" p-id="3213"></path></svg>